<?xml version="1.0" encoding="UTF-8"?>
<svg width="401px" height="33px" viewBox="0 0 401 33" version="1.1" xmlns="http://www.w3.org/2000/svg" xmlns:xlink="http://www.w3.org/1999/xlink">
    <!-- Generator: Sketch 47.1 (45422) - http://www.bohemiancoding.com/sketch -->
    <title>Pantera</title>
    <desc>Created with Sketch.</desc>
    <defs></defs>
    <g id="Page-1" stroke="none" stroke-width="1" fill="none" fill-rule="evenodd">
        <g id="Pantera" fill="#BFCDD5">
            <path d="M0.806930889,32.3518103 L0.806930889,1.69569974 L22.8560674,1.69569974 C30.8560674,2.13508171 34.8560674,5.25469815 34.8560674,11.0545491 C34.8560674,16.8544 30.8560674,19.817723 22.8560674,19.9445182 L4.85352484,19.9445182 L4.85352484,32.3518103 L0.806930889,32.3518103 Z M5.14502515,5.90355248 L5.14502515,15.8377753 L24.0181919,15.8377753 C28.0181919,15.5308963 30.0181919,13.7984728 30.0181919,10.6405046 C30.0181919,7.48253653 28.0181919,5.90355248 24.0181919,5.90355248 L5.14502515,5.90355248 Z" id="P"></path>
            <path d="M61.2652283,31.899462 L55.7266833,31.899462 L72.1744836,1.46292262 L78.1059001,1.46292262 L93.5334917,31.899462 L87.7637176,31.899462 L84.5868017,24.6674838 L65.1763425,24.6674838 L61.2652283,31.899462 Z M67.3009915,19.8329645 L83.0453946,19.8329645 L75.173193,5.98565911 L67.3009915,19.8329645 Z" id="A"></path>
            <polygon id="N" points="120.448658 31.1362775 120.448658 1.68620958 127.726623 1.68620958 149.74312 24.812227 149.74312 1.68620958 153.636834 1.68620958 153.636834 31.1362775 149.74312 31.1362775 124.600622 5.13820271 124.600622 31.1362775"></polygon>
            <polygon id="T" points="196.333984 32.40625 201.947266 32.40625 201.947266 14.6621094 210.34082 14.6621094 210.34082 10.3369141 201.947266 10.3369141 201.947266 5.25292969 216.009766 5.25292969 216.009766 0.96484375 182.481445 0.96484375 182.481445 5.25292969 196.333984 5.25292969 196.333984 10.3369141 187.066406 10.3369141 187.066406 14.6621094 196.333984 14.6621094"></polygon>
            <polygon id="E" points="243.389648 0.477539062 243.389648 31.9101562 273.402344 31.9101562 273.402344 26.9287109 248.810547 26.9287109 248.810547 18.9384766 265.6875 18.9384766 265.6875 13.9130859 248.810547 13.9130859 248.810547 5.51171875 273.402344 5.51171875 273.402344 0.477539062"></polygon>
            <path d="M328.463181,19.6542299 L337.243956,32.3500061 L331.58916,32.3500061 L323.111838,19.9445182 L306.853525,19.9445182 L306.853525,32.3518103 L301.806931,32.3518103 L301.806931,1.69569974 L324.856067,1.69569974 C332.856067,2.13508171 336.856067,5.25469815 336.856067,11.0545491 C336.856067,15.9049975 334.058438,18.7715577 328.463181,19.6542299 Z M307.145025,5.90355248 L307.145025,15.8377753 L326.018192,15.8377753 C330.018192,15.5308963 332.018192,13.7984728 332.018192,10.6405046 C332.018192,7.48253653 330.018192,5.90355248 326.018192,5.90355248 L307.145025,5.90355248 Z" id="R"></path>
            <path d="M368.265228,31.899462 L362.726683,31.899462 L379.174484,1.46292262 L385.1059,1.46292262 L400.533492,31.899462 L394.763718,31.899462 L391.586802,24.6674838 L372.176342,24.6674838 L368.265228,31.899462 Z M374.300991,19.8329645 L390.045395,19.8329645 L382.173193,5.98565911 L374.300991,19.8329645 Z" id="A2"></path>
        </g>
    </g>
</svg>