<?xml version="1.0" encoding="UTF-8"?>
<svg width="355px" height="28px" viewBox="0 0 355 28" version="1.1" xmlns="http://www.w3.org/2000/svg" xmlns:xlink="http://www.w3.org/1999/xlink">
    <!-- Generator: Sketch 47.1 (45422) - http://www.bohemiancoding.com/sketch -->
    <title>REFACTOR</title>
    <desc>Created with Sketch.</desc>
    <defs></defs>
    <g id="Page-1" stroke="none" stroke-width="1" fill="none" fill-rule="evenodd">
        <path d="M0.808,1.296 L12.904,1.296 C15.3520122,1.296 17.2659931,1.895994 18.646,3.096 C20.0260069,4.296006 20.716,5.93998956 20.716,8.028 C20.716,9.5880078 20.3620035,10.9559941 19.654,12.132 C18.9459965,13.3080059 17.8120078,14.1119978 16.252,14.544 L16.252,14.616 C16.9960037,14.7600007 17.6019977,14.9999983 18.07,15.336 C18.5380023,15.6720017 18.9099986,16.0739977 19.186,16.542 C19.4620014,17.0100023 19.6659993,17.5319971 19.798,18.108 C19.9300007,18.6840029 20.0319996,19.2839969 20.104,19.908 C20.1520002,20.5320031 20.1879999,21.1679968 20.212,21.816 C20.2360001,22.4640032 20.2959995,23.0999969 20.392,23.724 C20.4880005,24.3480031 20.6259991,24.9419972 20.806,25.506 C20.9860009,26.0700028 21.2559982,26.5679978 21.616,27 L17.8,27 C17.5599988,26.7359987 17.3980004,26.3760023 17.314,25.92 C17.2299996,25.4639977 17.1760001,24.9540028 17.152,24.39 C17.1279999,23.8259972 17.1040001,23.2200032 17.08,22.572 C17.0559999,21.9239968 16.9840006,21.2880031 16.864,20.664 C16.7679995,20.0399969 16.6480007,19.4460028 16.504,18.882 C16.3599993,18.3179972 16.1320016,17.8260021 15.82,17.406 C15.5079984,16.9859979 15.1000025,16.6500013 14.596,16.398 C14.0919975,16.1459987 13.4200042,16.02 12.58,16.02 L4.228,16.02 L4.228,27 L0.808,27 L0.808,1.296 Z M11.356,13.14 C12.148004,13.14 12.9039964,13.0800006 13.624,12.96 C14.3440036,12.8399994 14.9739973,12.6060017 15.514,12.258 C16.0540027,11.9099983 16.4859984,11.4420029 16.81,10.854 C17.1340016,10.2659971 17.296,9.50400468 17.296,8.568 C17.296,7.27199352 16.9360036,6.21600408 16.216,5.4 C15.4959964,4.58399592 14.332008,4.176 12.724,4.176 L4.228,4.176 L4.228,13.14 L11.356,13.14 Z M27.468,1.296 L27.468,27 L45.324,27 L45.324,24.12 L30.888,24.12 L30.888,15.228 L44.244,15.228 L44.244,12.348 L30.888,12.348 L30.888,4.176 L45.216,4.176 L45.216,1.296 L27.468,1.296 Z M51.464,1.296 L51.464,27 L54.884,27 L54.884,15.228 L66.692,15.228 L66.692,12.348 L54.884,12.348 L54.884,4.176 L68.348,4.176 L68.348,1.296 L51.464,1.296 Z M76.576,16.38 L85.288,16.38 L81.004,4.392 L80.932,4.392 L76.576,16.38 Z M79.132,1.296 L82.912,1.296 L92.956,27 L89.176,27 L86.368,19.26 L75.496,19.26 L72.616,27 L69.124,27 L79.132,1.296 Z M115.548,9.036 L118.968,9.036 C118.775999,7.66799316 118.368003,6.46200522 117.744,5.418 C117.119997,4.37399478 116.340005,3.50400348 115.404,2.808 C114.467995,2.11199652 113.400006,1.5840018 112.2,1.224 C110.999994,0.8639982 109.728007,0.684 108.384,0.684 C106.41599,0.684 104.670008,1.03799646 103.146,1.746 C101.621992,2.45400354 100.350005,3.41999388 99.33,4.644 C98.3099949,5.86800612 97.5360026,7.30199178 97.008,8.946 C96.4799974,10.5900082 96.216,12.3479906 96.216,14.22 C96.216,16.0920094 96.4619975,17.8439918 96.954,19.476 C97.4460025,21.1080082 98.1839951,22.523994 99.168,23.724 C100.152005,24.924006 101.387993,25.8659966 102.876,26.55 C104.364007,27.2340034 106.10399,27.576 108.096,27.576 C111.384016,27.576 113.975991,26.676009 115.872,24.876 C117.768009,23.075991 118.883998,20.5560162 119.22,17.316 L115.8,17.316 C115.728,18.3720053 115.512002,19.3559954 115.152,20.268 C114.791998,21.1800046 114.294003,21.9659967 113.658,22.626 C113.021997,23.2860033 112.266004,23.8019981 111.39,24.174 C110.513996,24.5460019 109.512006,24.732 108.384,24.732 C106.847992,24.732 105.528006,24.4440029 104.424,23.868 C103.319994,23.2919971 102.414004,22.5180049 101.706,21.546 C100.997996,20.5739951 100.476002,19.4340065 100.14,18.126 C99.8039983,16.8179935 99.636,15.4320073 99.636,13.968 C99.636,12.6239933 99.8039983,11.3280062 100.14,10.08 C100.476002,8.83199376 100.997996,7.72200486 101.706,6.75 C102.414004,5.77799514 103.313995,5.00400288 104.406,4.428 C105.498005,3.85199712 106.811992,3.564 108.348,3.564 C110.148009,3.564 111.701993,4.01999544 113.01,4.932 C114.318007,5.84400456 115.163998,7.21199088 115.548,9.036 Z M131.3,4.176 L131.3,27 L134.72,27 L134.72,4.176 L143.288,4.176 L143.288,1.296 L122.732,1.296 L122.732,4.176 L131.3,4.176 Z M150.112,14.148 C150.112,15.4440065 150.279998,16.7219937 150.616,17.982 C150.952002,19.2420063 151.479996,20.375995 152.2,21.384 C152.920004,22.392005 153.843994,23.2019969 154.972,23.814 C156.100006,24.4260031 157.443992,24.732 159.004,24.732 C160.564008,24.732 161.907994,24.4260031 163.036,23.814 C164.164006,23.2019969 165.087996,22.392005 165.808,21.384 C166.528004,20.375995 167.055998,19.2420063 167.392,17.982 C167.728002,16.7219937 167.896,15.4440065 167.896,14.148 C167.896,12.8519935 167.728002,11.5740063 167.392,10.314 C167.055998,9.0539937 166.528004,7.92000504 165.808,6.912 C165.087996,5.90399496 164.164006,5.09400306 163.036,4.482 C161.907994,3.86999694 160.564008,3.564 159.004,3.564 C157.443992,3.564 156.100006,3.86999694 154.972,4.482 C153.843994,5.09400306 152.920004,5.90399496 152.2,6.912 C151.479996,7.92000504 150.952002,9.0539937 150.616,10.314 C150.279998,11.5740063 150.112,12.8519935 150.112,14.148 Z M146.692,14.148 C146.692,12.3959912 146.949997,10.7100081 147.466,9.09 C147.982003,7.4699919 148.755995,6.03600624 149.788,4.788 C150.820005,3.53999376 152.103992,2.54400372 153.64,1.8 C155.176008,1.05599628 156.96399,0.684 159.004,0.684 C161.04401,0.684 162.831992,1.05599628 164.368,1.8 C165.904008,2.54400372 167.187995,3.53999376 168.22,4.788 C169.252005,6.03600624 170.025997,7.4699919 170.542,9.09 C171.058003,10.7100081 171.316,12.3959912 171.316,14.148 C171.316,15.9000088 171.058003,17.5859919 170.542,19.206 C170.025997,20.8260081 169.252005,22.2599938 168.22,23.508 C167.187995,24.7560062 165.904008,25.7459963 164.368,26.478 C162.831992,27.2100037 161.04401,27.576 159.004,27.576 C156.96399,27.576 155.176008,27.2100037 153.64,26.478 C152.103992,25.7459963 150.820005,24.7560062 149.788,23.508 C148.755995,22.2599938 147.982003,20.8260081 147.466,19.206 C146.949997,17.5859919 146.692,15.9000088 146.692,14.148 Z M177.492,1.296 L189.588,1.296 C192.036012,1.296 193.949993,1.895994 195.33,3.096 C196.710007,4.296006 197.4,5.93998956 197.4,8.028 C197.4,9.5880078 197.046004,10.9559941 196.338,12.132 C195.629996,13.3080059 194.496008,14.1119978 192.936,14.544 L192.936,14.616 C193.680004,14.7600007 194.285998,14.9999983 194.754,15.336 C195.222002,15.6720017 195.593999,16.0739977 195.87,16.542 C196.146001,17.0100023 196.349999,17.5319971 196.482,18.108 C196.614001,18.6840029 196.716,19.2839969 196.788,19.908 C196.836,20.5320031 196.872,21.1679968 196.896,21.816 C196.92,22.4640032 196.98,23.0999969 197.076,23.724 C197.172,24.3480031 197.309999,24.9419972 197.49,25.506 C197.670001,26.0700028 197.939998,26.5679978 198.3,27 L194.484,27 C194.243999,26.7359987 194.082,26.3760023 193.998,25.92 C193.914,25.4639977 193.86,24.9540028 193.836,24.39 C193.812,23.8259972 193.788,23.2200032 193.764,22.572 C193.74,21.9239968 193.668001,21.2880031 193.548,20.664 C193.452,20.0399969 193.332001,19.4460028 193.188,18.882 C193.043999,18.3179972 192.816002,17.8260021 192.504,17.406 C192.191998,16.9859979 191.784003,16.6500013 191.28,16.398 C190.775997,16.1459987 190.104004,16.02 189.264,16.02 L180.912,16.02 L180.912,27 L177.492,27 L177.492,1.296 Z M188.04,13.14 C188.832004,13.14 189.587996,13.0800006 190.308,12.96 C191.028004,12.8399994 191.657997,12.6060017 192.198,12.258 C192.738003,11.9099983 193.169998,11.4420029 193.494,10.854 C193.818002,10.2659971 193.98,9.50400468 193.98,8.568 C193.98,7.27199352 193.620004,6.21600408 192.9,5.4 C192.179996,4.58399592 191.016008,4.176 189.408,4.176 L180.912,4.176 L180.912,13.14 L188.04,13.14 Z M214.648,14.148 C214.648,12.2759906 214.923997,10.5180082 215.476,8.874 C216.028003,7.22999178 216.825995,5.80200606 217.87,4.59 C218.914005,3.37799394 220.197992,2.42400348 221.722,1.728 C223.246008,1.03199652 224.96799,0.684 226.888,0.684 C228.400008,0.684 229.707994,0.88199802 230.812,1.278 C231.916006,1.67400198 232.845996,2.16599706 233.602,2.754 C234.358004,3.34200294 234.975998,3.98399652 235.456,4.68 C235.936002,5.37600348 236.301999,6.02999694 236.554,6.642 C236.806001,7.25400306 236.98,7.78199778 237.076,8.226 C237.172,8.67000222 237.22,8.91599976 237.22,8.964 L235.636,8.964 C235.467999,7.8839946 235.120003,6.91800426 234.592,6.066 C234.063997,5.21399574 233.404004,4.488003 232.612,3.888 C231.819996,3.287997 230.938005,2.83200156 229.966,2.52 C228.993995,2.20799844 227.968005,2.052 226.888,2.052 C225.207992,2.052 223.708007,2.37599676 222.388,3.024 C221.067993,3.67200324 219.952005,4.54199454 219.04,5.634 C218.127995,6.72600546 217.432002,8.00399268 216.952,9.468 C216.471998,10.9320073 216.232,12.4919917 216.232,14.148 C216.232,15.8040083 216.471998,17.3639927 216.952,18.828 C217.432002,20.2920073 218.127995,21.5699945 219.04,22.662 C219.952005,23.7540055 221.067993,24.6239968 222.388,25.272 C223.708007,25.9200032 225.207992,26.244 226.888,26.244 C228.136006,26.244 229.305995,25.9860026 230.398,25.47 C231.490005,24.9539974 232.443996,24.2700043 233.26,23.418 C234.076004,22.5659957 234.729998,21.5820056 235.222,20.466 C235.714002,19.3499944 235.996,18.192006 236.068,16.992 L237.652,16.992 C237.507999,18.5280077 237.130003,19.9439935 236.518,21.24 C235.905997,22.5360065 235.126005,23.6579953 234.178,24.606 C233.229995,25.5540047 232.132006,26.2919974 230.884,26.82 C229.635994,27.3480026 228.304007,27.612 226.888,27.612 C224.96799,27.612 223.246008,27.2640035 221.722,26.568 C220.197992,25.8719965 218.914005,24.9180061 217.87,23.706 C216.825995,22.4939939 216.028003,21.0660082 215.476,19.422 C214.923997,17.7779918 214.648,16.0200094 214.648,14.148 Z M249.948,1.296 L251.676,1.296 L261.828,27 L260.136,27 L256.896,18.756 L244.584,18.756 L241.308,27 L239.616,27 L249.948,1.296 Z M256.392,17.388 L250.884,2.844 L250.812,2.844 L245.088,17.388 L256.392,17.388 Z M265.664,1.296 L276.608,1.296 C277.328004,1.296 278.125996,1.37999916 279.002,1.548 C279.878004,1.71600084 280.693996,2.05799742 281.45,2.574 C282.206004,3.09000258 282.835997,3.82199526 283.34,4.77 C283.844003,5.71800474 284.096,6.95999232 284.096,8.496 C284.096,10.7520113 283.400007,12.4919939 282.008,13.716 C280.615993,14.9400061 278.624013,15.552 276.032,15.552 L267.248,15.552 L267.248,27 L265.664,27 L265.664,1.296 Z M267.248,14.184 L276.284,14.184 C277.436006,14.184 278.413996,14.0100017 279.218,13.662 C280.022004,13.3139983 280.663998,12.8640028 281.144,12.312 C281.624002,11.7599972 281.971999,11.1480034 282.188,10.476 C282.404001,9.80399664 282.512,9.13200336 282.512,8.46 C282.512,7.9799976 282.440001,7.4100033 282.296,6.75 C282.151999,6.0899967 281.864002,5.45400306 281.432,4.842 C280.999998,4.22999694 280.394004,3.7140021 279.614,3.294 C278.833996,2.8739979 277.796006,2.664 276.5,2.664 L267.248,2.664 L267.248,14.184 Z M288.94,1.296 L290.524,1.296 L290.524,27 L288.94,27 L288.94,1.296 Z M294.288,2.664 L294.288,1.296 L313.98,1.296 L313.98,2.664 L304.908,2.664 L304.908,27 L303.324,27 L303.324,2.664 L294.288,2.664 Z M322.568,1.296 L324.296,1.296 L334.448,27 L332.756,27 L329.516,18.756 L317.204,18.756 L313.928,27 L312.236,27 L322.568,1.296 Z M329.012,17.388 L323.504,2.844 L323.432,2.844 L317.708,17.388 L329.012,17.388 Z M338.284,1.296 L339.868,1.296 L339.868,25.632 L354.448,25.632 L354.448,27 L338.284,27 L338.284,1.296 Z" id="REFACTOR" fill="#BFCDD5"></path>
    </g>
</svg>